<svg width="36" height="35" viewBox="0 0 36 35" fill="none" xmlns="http://www.w3.org/2000/svg">
<g clip-path="url(#clip0_1707_316)">
<path d="M30.3114 5.07453C27.0387 1.8025 22.6876 0 18.0592 0H0.732422V23.4363C0.732422 29.3979 5.40741 34.2882 11.2836 34.6341C11.5041 34.647 11.7258 34.6535 11.9495 34.6535H18.0592C22.6869 34.6535 27.0387 32.851 30.3107 29.5783C33.5834 26.3062 35.3859 21.9545 35.3859 17.3267C35.3859 12.6983 33.5834 8.34722 30.3114 5.07453ZM3.38315 23.4363V23.404C3.40061 18.6954 7.23706 14.87 11.9495 14.87C16.673 14.87 20.5159 18.7129 20.5159 23.4363C20.5159 28.1598 16.673 32.0027 11.9495 32.0027C7.22607 32.0027 3.38315 28.1598 3.38315 23.4363ZM19.2384 31.9555C21.6415 29.897 23.1667 26.8416 23.1667 23.4363C23.1667 17.2511 18.1348 12.2192 11.9495 12.2192C8.51846 12.2192 5.44297 13.7676 3.38315 16.2018V2.65073H18.0592C21.979 2.65073 25.6648 4.17716 28.4364 6.94944C31.2087 9.72107 32.7352 13.4062 32.7352 17.3267C32.7352 25.0223 26.782 31.353 19.2384 31.9555Z" fill="#F23838"/>
</g>
<defs>
<clipPath id="clip0_1707_316">
<rect width="34.6535" height="34.6535" fill="white" transform="translate(0.732422)"/>
</clipPath>
</defs>
</svg>
