<svg width="175" height="35" viewBox="0 0 175 35" fill="none" xmlns="http://www.w3.org/2000/svg">
<g clip-path="url(#clip0_741_1922)">
<g clip-path="url(#clip1_741_1922)">
<path d="M31.3115 5.07453C28.0388 1.8025 23.6877 0 19.0593 0H1.73257V23.4363C1.73257 29.3979 6.40756 34.2882 12.2838 34.6341C12.5042 34.647 12.726 34.6535 12.9497 34.6535H19.0593C23.6871 34.6535 28.0388 32.851 31.3109 29.5783C34.5835 26.3062 36.386 21.9545 36.386 17.3267C36.386 12.6983 34.5835 8.34722 31.3115 5.07453ZM4.38331 23.4363V23.404C4.40076 18.6954 8.23721 14.87 12.9497 14.87C17.6732 14.87 21.5161 18.7129 21.5161 23.4363C21.5161 28.1598 17.6732 32.0027 12.9497 32.0027C8.22622 32.0027 4.38331 28.1598 4.38331 23.4363ZM20.2386 31.9555C22.6417 29.897 24.1668 26.8416 24.1668 23.4363C24.1668 17.2511 19.1349 12.2192 12.9497 12.2192C9.51861 12.2192 6.44312 13.7676 4.38331 16.2018V2.65073H19.0593C22.9792 2.65073 26.665 4.17716 29.4366 6.94944C32.2089 9.72107 33.7353 13.4062 33.7353 17.3267C33.7353 25.0223 27.7822 31.353 20.2386 31.9555Z" fill="#F23838"/>
</g>
<path d="M60.2647 11.7168H55.2337V25.3999H51.8495V11.7168H46.8861V8.97561H60.2647V11.7168Z" fill="black"/>
<path d="M70.1238 22.0158H64.1903L63.0623 25.3999H59.4638L65.5778 8.97561H68.7138L74.8616 25.3999H71.2631L70.1238 22.0158ZM65.104 19.2746H69.2101L67.1458 13.1268L65.104 19.2746Z" fill="black"/>
<path d="M79.7799 19.6131V25.3999H76.3957V8.97561H82.803C84.0363 8.97561 85.1193 9.20122 86.0518 9.65243C86.9918 10.1037 87.7138 10.7466 88.2176 11.5814C88.7215 12.4086 88.9734 13.3524 88.9734 14.4128C88.9734 16.0221 88.4207 17.293 87.3152 18.2256C86.2172 19.1506 84.6944 19.6131 82.7466 19.6131H79.7799ZM79.7799 16.8719H82.803C83.6979 16.8719 84.3785 16.6613 84.8448 16.2402C85.3185 15.8191 85.5554 15.2174 85.5554 14.4353C85.5554 13.6307 85.3185 12.9802 84.8448 12.4838C84.371 11.9875 83.7167 11.7318 82.882 11.7168H79.7799V16.8719Z" fill="black"/>
<path d="M97.0615 25.3999V8.97561H102.115C103.559 8.97561 104.849 9.30274 105.984 9.95701C107.127 10.6037 108.019 11.5287 108.658 12.732C109.297 13.9277 109.617 15.2889 109.617 16.8155V17.5713C109.617 19.0979 109.301 20.4553 108.669 21.6435C108.045 22.8317 107.161 23.753 106.018 24.4072C104.875 25.0615 103.585 25.3924 102.149 25.3999H97.0615ZM100.446 11.7168V22.6813H102.081C103.405 22.6813 104.416 22.2489 105.116 21.3841C105.815 20.5192 106.172 19.2822 106.187 17.6728V16.8042C106.187 15.1347 105.841 13.8713 105.15 13.014C104.458 12.1492 103.446 11.7168 102.115 11.7168H100.446Z" fill="black"/>
<path d="M121.969 18.282H115.471V22.6813H123.097V25.3999H112.087V8.97561H123.074V11.7168H115.471V15.6311H121.969V18.282Z" fill="black"/>
<path d="M133.599 21.0908C133.599 20.4516 133.373 19.9627 132.922 19.6243C132.471 19.2784 131.659 18.9174 130.485 18.5414C129.312 18.1579 128.383 17.7819 127.699 17.4134C125.834 16.4056 124.902 15.0482 124.902 13.3411C124.902 12.4537 125.15 11.6641 125.646 10.9722C126.15 10.2729 126.868 9.72764 127.801 9.33658C128.741 8.94553 129.793 8.75 130.959 8.75C132.132 8.75 133.178 8.96433 134.095 9.39298C135.013 9.81412 135.723 10.412 136.227 11.1866C136.738 11.9612 136.994 12.841 136.994 13.8262H133.61C133.61 13.0742 133.373 12.4913 132.899 12.0777C132.426 11.6566 131.76 11.446 130.903 11.446C130.076 11.446 129.433 11.6227 128.974 11.9762C128.515 12.3221 128.286 12.7809 128.286 13.3524C128.286 13.8864 128.553 14.3338 129.087 14.6948C129.628 15.0558 130.421 15.3942 131.467 15.71C133.392 16.2891 134.794 17.0073 135.674 17.8646C136.554 18.7219 136.994 19.7898 136.994 21.0682C136.994 22.4896 136.456 23.6063 135.381 24.4185C134.306 25.2232 132.858 25.6255 131.038 25.6255C129.775 25.6255 128.624 25.3961 127.586 24.9374C126.548 24.4712 125.755 23.8357 125.206 23.031C124.665 22.2263 124.394 21.2938 124.394 20.2335H127.789C127.789 22.0459 128.872 22.9521 131.038 22.9521C131.843 22.9521 132.471 22.7904 132.922 22.467C133.373 22.1361 133.599 21.6774 133.599 21.0908Z" fill="black"/>
<path d="M142.894 25.3999H139.51V8.97561H142.894V25.3999Z" fill="black"/>
<path d="M159.036 23.3243C158.427 24.0538 157.566 24.6216 156.453 25.0277C155.34 25.4262 154.107 25.6255 152.753 25.6255C151.332 25.6255 150.083 25.3172 149.008 24.7005C147.94 24.0763 147.113 23.1739 146.526 21.9932C145.947 20.8125 145.65 19.425 145.635 17.8307V16.714C145.635 15.0746 145.909 13.657 146.458 12.4613C147.015 11.258 147.812 10.3405 148.85 9.70884C149.895 9.06961 151.117 8.75 152.516 8.75C154.464 8.75 155.987 9.21626 157.085 10.1488C158.183 11.0738 158.833 12.4237 159.036 14.1984H155.742C155.592 13.2584 155.257 12.5703 154.738 12.1341C154.227 11.698 153.52 11.4799 152.618 11.4799C151.467 11.4799 150.591 11.9123 149.989 12.7771C149.388 13.6419 149.083 14.9279 149.076 16.635V17.6841C149.076 19.4062 149.403 20.7073 150.057 21.5871C150.711 22.467 151.67 22.9069 152.933 22.9069C154.204 22.9069 155.111 22.6362 155.652 22.0947V19.2634H152.572V16.7704H159.036V23.3243Z" fill="black"/>
<path d="M175.145 25.3999H171.76L165.173 14.5933V25.3999H161.789V8.97561H165.173L171.772 19.8048V8.97561H175.145V25.3999Z" fill="black"/>
</g>
<defs>
<clipPath id="clip0_741_1922">
<rect width="175" height="35" fill="white"/>
</clipPath>
<clipPath id="clip1_741_1922">
<rect width="34.6535" height="34.6535" fill="white" transform="translate(1.73267)"/>
</clipPath>
</defs>
</svg>
